<svg width="50" height="50" viewBox="0 0 50 50" fill="none" xmlns="http://www.w3.org/2000/svg">
<path d="M10.4167 43.75C9.27084 43.75 8.28959 43.3417 7.47292 42.525C6.65625 41.7083 6.24861 40.7278 6.25 39.5833V18.75C6.25 17.6042 6.65834 16.6229 7.475 15.8063C8.29167 14.9896 9.27223 14.5819 10.4167 14.5833H14.5833V10.4167C14.5833 9.27084 14.9917 8.28959 15.8083 7.47292C16.625 6.65625 17.6056 6.24861 18.75 6.25H31.25C32.3958 6.25 33.3771 6.65834 34.1938 7.475C35.0104 8.29167 35.4181 9.27223 35.4167 10.4167V22.9167H39.5833C40.7292 22.9167 41.7104 23.325 42.5271 24.1417C43.3438 24.9583 43.7514 25.9389 43.75 27.0833V39.5833C43.75 40.7292 43.3417 41.7104 42.525 42.5271C41.7083 43.3438 40.7278 43.7514 39.5833 43.75H27.0833V35.4167H22.9167V43.75H10.4167ZM10.4167 39.5833H14.5833V35.4167H10.4167V39.5833ZM10.4167 31.25H14.5833V27.0833H10.4167V31.25ZM10.4167 22.9167H14.5833V18.75H10.4167V22.9167ZM18.75 31.25H22.9167V27.0833H18.75V31.25ZM18.75 22.9167H22.9167V18.75H18.75V22.9167ZM18.75 14.5833H22.9167V10.4167H18.75V14.5833ZM27.0833 31.25H31.25V27.0833H27.0833V31.25ZM27.0833 22.9167H31.25V18.75H27.0833V22.9167ZM27.0833 14.5833H31.25V10.4167H27.0833V14.5833ZM35.4167 39.5833H39.5833V35.4167H35.4167V39.5833ZM35.4167 31.25H39.5833V27.0833H35.4167V31.25Z" fill="white"/>
</svg>
