<svg width="50" height="50" viewBox="0 0 50 50" fill="none" xmlns="http://www.w3.org/2000/svg">
<path d="M27.4375 8.33334L37.5 18.3958V41.6667H12.5V8.33334H27.4375ZM29.1667 4.16667H12.5C10.2083 4.16667 8.33334 6.04167 8.33334 8.33334V41.6667C8.33334 43.9583 10.2083 45.8333 12.5 45.8333H37.5C39.7917 45.8333 41.6667 43.9583 41.6667 41.6667V16.6667L29.1667 4.16667ZM25 29.1667C27.2917 29.1667 29.1667 27.2917 29.1667 25C29.1667 22.7083 27.2917 20.8333 25 20.8333C22.7083 20.8333 20.8333 22.7083 20.8333 25C20.8333 27.2917 22.7083 29.1667 25 29.1667ZM33.3333 36.3125C33.3333 34.625 32.3333 33.125 30.7917 32.4583C28.9649 31.6611 26.9932 31.2495 25 31.2495C23.0068 31.2495 21.0351 31.6611 19.2083 32.4583C18.4536 32.7809 17.8103 33.3183 17.3584 34.0035C16.9065 34.6887 16.666 35.4917 16.6667 36.3125V37.5H33.3333V36.3125Z" fill="white"/>
</svg>
