<svg width="50" height="50" viewBox="0 0 50 50" fill="none" xmlns="http://www.w3.org/2000/svg">
<path fill-rule="evenodd" clip-rule="evenodd" d="M14.5833 18.75C14.1713 18.7501 13.7686 18.8723 13.4261 19.1012C13.0836 19.3302 12.8166 19.6555 12.659 20.0361C12.5013 20.4168 12.4601 20.8356 12.5404 21.2396C12.6208 21.6437 12.8191 22.0149 13.1104 22.3062L23.5271 32.7229C23.9177 33.1135 24.4476 33.3329 25 33.3329C25.5524 33.3329 26.0822 33.1135 26.4729 32.7229L36.8896 22.3062C37.1808 22.0149 37.3792 21.6437 37.4595 21.2396C37.5399 20.8356 37.4986 20.4168 37.341 20.0361C37.1833 19.6555 36.9164 19.3302 36.5739 19.1012C36.2313 18.8723 35.8286 18.7501 35.4166 18.75H14.5833Z" fill="white"/>
</svg>
