<svg width="50" height="50" viewBox="0 0 50 50" fill="none" xmlns="http://www.w3.org/2000/svg">
<path d="M21.5813 2.07499C22.5508 1.29827 23.7561 0.875031 24.9984 0.875031C26.2408 0.875031 27.446 1.29827 28.4156 2.07499L44.8219 15.2C46.1188 16.2375 46.875 17.8094 46.875 19.4719V41.4062C46.875 42.8566 46.2988 44.2476 45.2732 45.2732C44.2477 46.2988 42.8567 46.875 41.4062 46.875H30.4688C29.8471 46.875 29.251 46.6281 28.8115 46.1885C28.3719 45.749 28.125 45.1528 28.125 44.5312V28.125H21.875V44.5312C21.875 45.1528 21.6281 45.749 21.1885 46.1885C20.749 46.6281 20.1529 46.875 19.5312 46.875H8.59375C7.14335 46.875 5.75235 46.2988 4.72676 45.2732C3.70117 44.2476 3.125 42.8566 3.125 41.4062V19.4687C3.125 17.8094 3.88125 16.2375 5.17812 15.2L21.5813 2.07499ZM25.4875 5.73437C25.3491 5.62382 25.1772 5.5636 25 5.5636C24.8228 5.5636 24.6509 5.62382 24.5125 5.73437L8.10625 18.8594C8.01434 18.9328 7.94018 19.026 7.88932 19.132C7.83846 19.2381 7.8122 19.3542 7.8125 19.4719V41.4062C7.8125 41.8375 8.1625 42.1875 8.59375 42.1875H17.1875V25.7812C17.1875 25.1596 17.4344 24.5635 17.874 24.124C18.3135 23.6844 18.9096 23.4375 19.5312 23.4375H30.4688C31.0904 23.4375 31.6865 23.6844 32.126 24.124C32.5656 24.5635 32.8125 25.1596 32.8125 25.7812V42.1875H41.4062C41.6135 42.1875 41.8122 42.1052 41.9587 41.9587C42.1052 41.8122 42.1875 41.6134 42.1875 41.4062V19.4687C42.1873 19.3516 42.1608 19.2361 42.11 19.1306C42.0592 19.0251 41.9853 18.9324 41.8938 18.8594L25.4875 5.73437Z" fill="white"/>
</svg>
