<svg width="50" height="50" viewBox="0 0 50 50" fill="none" xmlns="http://www.w3.org/2000/svg">
<path d="M25 7.8125C24.5212 7.8125 24.0471 7.9068 23.6048 8.09003C23.1625 8.27325 22.7606 8.5418 22.422 8.88034C22.0835 9.21889 21.8149 9.6208 21.6317 10.0631C21.4485 10.5055 21.3542 10.9796 21.3542 11.4583C21.3542 11.9371 21.4485 12.4112 21.6317 12.8535C21.8149 13.2959 22.0835 13.6978 22.422 14.0363C22.7606 14.3749 23.1625 14.6434 23.6048 14.8266C24.0471 15.0099 24.5212 15.1042 25 15.1042C25.9669 15.1042 26.8943 14.7201 27.578 14.0363C28.2617 13.3526 28.6458 12.4253 28.6458 11.4583C28.6458 10.4914 28.2617 9.56407 27.578 8.88034C26.8943 8.19662 25.9669 7.8125 25 7.8125ZM18.75 11.4583C18.75 9.80073 19.4085 8.21102 20.5806 7.03892C21.7527 5.86682 23.3424 5.20834 25 5.20834C26.6576 5.20834 28.2473 5.86682 29.4194 7.03892C30.5915 8.21102 31.25 9.80073 31.25 11.4583C31.25 13.1159 30.5915 14.7057 29.4194 15.8778C28.2473 17.0499 26.6576 17.7083 25 17.7083C23.3424 17.7083 21.7527 17.0499 20.5806 15.8778C19.4085 14.7057 18.75 13.1159 18.75 11.4583ZM38.5417 9.89584C37.851 9.89584 37.1886 10.1702 36.7002 10.6586C36.2119 11.147 35.9375 11.8093 35.9375 12.5C35.9375 13.1907 36.2119 13.8531 36.7002 14.3414C37.1886 14.8298 37.851 15.1042 38.5417 15.1042C39.2323 15.1042 39.8947 14.8298 40.3831 14.3414C40.8715 13.8531 41.1458 13.1907 41.1458 12.5C41.1458 11.8093 40.8715 11.147 40.3831 10.6586C39.8947 10.1702 39.2323 9.89584 38.5417 9.89584ZM33.3333 12.5C33.3333 11.1187 33.8821 9.79391 34.8588 8.81715C35.8356 7.8404 37.1603 7.29167 38.5417 7.29167C39.923 7.29167 41.2478 7.8404 42.2245 8.81715C43.2013 9.79391 43.75 11.1187 43.75 12.5C43.75 13.8813 43.2013 15.2061 42.2245 16.1828C41.2478 17.1596 39.923 17.7083 38.5417 17.7083C37.1603 17.7083 35.8356 17.1596 34.8588 16.1828C33.8821 15.2061 33.3333 13.8813 33.3333 12.5ZM8.85417 12.5C8.85417 11.8093 9.12854 11.147 9.61691 10.6586C10.1053 10.1702 10.7677 9.89584 11.4583 9.89584C12.149 9.89584 12.8114 10.1702 13.2998 10.6586C13.7881 11.147 14.0625 11.8093 14.0625 12.5C14.0625 13.1907 13.7881 13.8531 13.2998 14.3414C12.8114 14.8298 12.149 15.1042 11.4583 15.1042C10.7677 15.1042 10.1053 14.8298 9.61691 14.3414C9.12854 13.8531 8.85417 13.1907 8.85417 12.5ZM11.4583 7.29167C10.077 7.29167 8.75224 7.8404 7.77549 8.81715C6.79874 9.79391 6.25001 11.1187 6.25001 12.5C6.25001 13.8813 6.79874 15.2061 7.77549 16.1828C8.75224 17.1596 10.077 17.7083 11.4583 17.7083C12.8397 17.7083 14.1644 17.1596 15.1412 16.1828C16.1179 15.2061 16.6667 13.8813 16.6667 12.5C16.6667 11.1187 16.1179 9.79391 15.1412 8.81715C14.1644 7.8404 12.8397 7.29167 11.4583 7.29167ZM15.625 24.2188C15.625 23.0446 16.0914 21.9186 16.9217 21.0883C17.7519 20.2581 18.878 19.7917 20.0521 19.7917H29.9479C31.1221 19.7917 32.2481 20.2581 33.0783 21.0883C33.9086 21.9186 34.375 23.0446 34.375 24.2188V35.4167C34.375 37.9031 33.3873 40.2876 31.6291 42.0458C29.871 43.8039 27.4864 44.7917 25 44.7917C22.5136 44.7917 20.129 43.8039 18.3709 42.0458C16.6127 40.2876 15.625 37.9031 15.625 35.4167V24.2188ZM25 42.1875C26.7957 42.1875 28.5179 41.4741 29.7877 40.2044C31.0575 38.9346 31.7708 37.2124 31.7708 35.4167V24.2188C31.7708 23.7353 31.5788 23.2716 31.2369 22.9298C30.8951 22.5879 30.4314 22.3958 29.9479 22.3958H20.0521C19.5686 22.3958 19.105 22.5879 18.7631 22.9298C18.4212 23.2716 18.2292 23.7353 18.2292 24.2188V35.4167C18.2292 37.2124 18.9425 38.9346 20.2123 40.2044C21.4821 41.4741 23.2043 42.1875 25 42.1875ZM11.4583 39.0625C12.3294 39.0639 13.1835 38.8214 13.924 38.3625C14.1521 39.2229 14.4781 40.0427 14.8885 40.8104C13.7774 41.4028 12.5319 41.6973 11.2731 41.6653C10.0144 41.6333 8.78542 41.2759 7.70582 40.6279C6.62623 39.9799 5.73282 39.0634 5.11261 37.9676C4.49239 36.8719 4.1665 35.6341 4.16667 34.375V24.2198C4.16654 23.6383 4.28094 23.0625 4.50336 22.5253C4.72579 21.9881 5.05186 21.4999 5.46297 21.0887C5.87407 20.6775 6.36216 20.3513 6.89934 20.1288C7.43653 19.9062 8.01229 19.7917 8.59375 19.7917H14.3229C14.6229 19.7917 14.9167 19.8219 15.199 19.8781C14.5502 20.6022 14.0722 21.4625 13.8 22.3958H8.59375C8.11029 22.3958 7.64662 22.5879 7.30476 22.9298C6.9629 23.2716 6.77084 23.7353 6.77084 24.2188V34.375C6.77084 35.6182 7.2647 36.8105 8.14378 37.6896C9.02285 38.5686 10.2151 39.0625 11.4583 39.0625ZM38.5417 41.6667C37.3453 41.6686 36.1669 41.3748 35.1115 40.8115C35.5219 40.0427 35.8479 39.2229 36.076 38.3625C36.7861 38.8017 37.6007 39.0432 38.4354 39.0622C39.2701 39.0811 40.0948 38.8767 40.824 38.4702C41.5533 38.0636 42.1608 37.4697 42.5836 36.7497C43.0065 36.0298 43.2293 35.2099 43.2292 34.375V24.2188C43.2292 23.7353 43.0371 23.2716 42.6953 22.9298C42.3534 22.5879 41.8897 22.3958 41.4063 22.3958H36.2C35.9275 21.4624 35.4491 20.6021 34.8 19.8781C35.0844 19.8219 35.3771 19.7917 35.6771 19.7917H41.4063C42.5804 19.7917 43.7064 20.2581 44.5367 21.0883C45.3669 21.9186 45.8333 23.0446 45.8333 24.2188V34.375C45.8333 36.3089 45.0651 38.1635 43.6977 39.531C42.3302 40.8984 40.4755 41.6667 38.5417 41.6667Z" fill="white"/>
</svg>
