<svg width="881" height="620" viewBox="0 0 881 620" fill="none" xmlns="http://www.w3.org/2000/svg">
<path fill-rule="evenodd" clip-rule="evenodd" d="M750.601 620C758.899 620 763.587 610.476 758.525 603.9L388.234 122.872C384.231 117.672 376.389 117.672 372.385 122.872L2.09432 603.9C-2.96759 610.476 1.72006 620 10.0184 620H234.966C238.672 620 242.073 617.951 243.806 614.676L372.342 371.688C376.098 364.59 386.266 364.59 390.021 371.688L518.558 614.676C520.29 617.951 523.692 620 527.397 620H750.601Z" fill="#A5B4E9"/>
<path d="M455.461 14.3577C459.26 8.88694 466.977 8.62429 471.015 13.8283L874.817 534.144C878.217 538.526 877.518 544.986 873.26 548.542L816.326 596.08C812.087 599.619 805.927 598.935 802.569 594.55L413.798 87.0488C411.067 83.4841 410.969 78.4382 413.558 74.71L455.461 14.3577Z" fill="#A5B4E9"/>
</svg>
